<svg width="340" height="68" viewBox="0 0 340 68" fill="none" xmlns="http://www.w3.org/2000/svg">
<g clip-path="url(#clip0_325_82)">
<mask id="mask0_325_82" style="mask-type:luminance" maskUnits="userSpaceOnUse" x="0" y="0" width="340" height="68">
<path d="M340 0H0V68H340V0Z" fill="white"/>
</mask>
<g mask="url(#mask0_325_82)">
<path fill-rule="evenodd" clip-rule="evenodd" d="M1.81048 25.4719L22.8703 0.0105428L60.8935 0L84.3798 30.2147L51.4314 44.8819L22.8781 7.75852L0 30.2457L22.8749 5.10401L51.721 44.0136L84.3798 30.2147L60.6321 0.55292L23.9421 1.54183L51.5349 38.9089L22.8751 1.56491L1.81048 25.4719Z" fill="#282828"/>
<path fill-rule="evenodd" clip-rule="evenodd" d="M22.7734 21.209L28.7608 22.2727L28.7695 35.1373L22.9695 33.469L27.0559 34.436V22.706L23.0762 21.6265L22.8074 33.4392L22.7734 21.209Z" fill="#282828"/>
<path fill-rule="evenodd" clip-rule="evenodd" d="M28.7433 49.111L28.7684 36.3193L22.7798 34.5039L22.7539 46.3368L23.026 34.9166L27.0663 36.3924L27.0773 48.1792L22.8915 46.3814L28.7433 49.111Z" fill="#282828"/>
<path fill-rule="evenodd" clip-rule="evenodd" d="M17.2227 20.2734L21.6735 21.038L21.7125 33.1317L20.1517 32.6517L20.1452 21.3708L17.46 20.6488L17.2456 31.7792L17.2227 20.2734Z" fill="#282828"/>
<path fill-rule="evenodd" clip-rule="evenodd" d="M21.7054 45.839L21.715 34.1815L17.1975 32.8203L17.1836 43.7031L17.3536 33.0977L20.1799 34.094L20.1648 45.1787L21.7054 45.839Z" fill="#282828"/>
<path fill-rule="evenodd" clip-rule="evenodd" d="M42.6635 59.8525L41.8785 40.9375L41.1453 59.8513L4.03906 42.3381L41.8625 62.6321L79.0013 42.3338L42.6635 59.8525Z" fill="#282828"/>
<path fill-rule="evenodd" clip-rule="evenodd" d="M41.9203 65.3993L78.8317 45.623L41.8999 68.0011L3.82422 45.623L41.9203 65.3993Z" fill="#282828"/>
<path d="M123.281 10.0242V13.1046H114.483V37.5165H111.099V13.1046H102.227V10.0242H123.281ZM137.983 9.52369C141.919 9.52369 144.989 10.8714 147.195 13.5667C149.4 16.262 150.504 19.6632 150.504 23.7704C150.504 27.8776 149.4 31.2787 147.195 33.9741C144.989 36.6695 141.919 38.0171 137.983 38.0171C134.023 38.0171 130.94 36.6822 128.734 34.0126C126.553 31.3172 125.464 27.9031 125.464 23.7704C125.464 19.6375 126.553 16.2364 128.734 13.5667C130.94 10.8714 134.023 9.52369 137.983 9.52369ZM131.178 31.6638C132.707 33.7945 134.976 34.8598 137.983 34.8598C140.991 34.8598 143.259 33.7945 144.789 31.6638C146.317 29.5333 147.082 26.9021 147.082 23.7704C147.082 20.6387 146.317 18.0075 144.789 15.8769C143.259 13.7464 140.991 12.681 137.983 12.681C134.976 12.681 132.707 13.7464 131.178 15.8769C129.649 18.0075 128.885 20.6387 128.885 23.7704C128.885 26.9021 129.649 29.5333 131.178 31.6638ZM156.006 10.0242H177.511V37.5165H174.128V13.1816H159.39V37.5165H156.006V10.0242ZM204.541 34.3591H208.413V44.2548H205.067V37.5165H184.727V44.2548H181.38V34.3591H184.162C186.419 29.4819 187.546 23.2184 187.546 15.5689V10.0242H204.541V34.3591ZM201.194 34.3591V13.1816H190.78V16.1464C190.78 23.6421 189.778 29.7129 187.772 34.3591H201.194ZM224.009 9.52369C227.943 9.52369 231.014 10.8714 233.22 13.5667C235.426 16.262 236.528 19.6632 236.528 23.7704C236.528 27.8776 235.426 31.2787 233.22 33.9741C231.014 36.6695 227.943 38.0171 224.009 38.0171C220.048 38.0171 216.965 36.6822 214.76 34.0126C212.579 31.3172 211.488 27.9031 211.488 23.7704C211.488 19.6375 212.579 16.2364 214.76 13.5667C216.965 10.8714 220.048 9.52369 224.009 9.52369ZM217.203 31.6638C218.732 33.7945 221 34.8598 224.009 34.8598C227.016 34.8598 229.285 33.7945 230.813 31.6638C232.343 29.5333 233.108 26.9021 233.108 23.7704C233.108 20.6387 232.343 18.0075 230.813 15.8769C229.285 13.7464 227.016 12.681 224.009 12.681C221 12.681 218.732 13.7464 217.203 15.8769C215.675 18.0075 214.91 20.6387 214.91 23.7704C214.91 26.9021 215.675 29.5333 217.203 31.6638ZM242.031 37.5165V10.0242H247.671L254.438 22.9232H255.265L261.92 10.0242H267.597V37.5165H264.288V13.9517H263.461L256.581 27.0048H253.047L246.168 13.9517H245.34V37.5165H242.031ZM277.834 37.5165H273.926V33.05H277.834V37.5165ZM284.144 10.0242H295.498C298.406 10.0242 300.65 10.743 302.228 12.1805C303.808 13.618 304.596 15.633 304.596 18.2257C304.596 20.8441 303.808 22.8848 302.228 24.3479C300.65 25.7855 298.406 26.5042 295.498 26.5042H287.528V37.5165H284.144V10.0242ZM287.528 23.4239H294.935C299.095 23.4239 301.177 21.7039 301.177 18.2642C301.177 14.8246 299.095 13.1046 294.935 13.1046H287.528V23.4239ZM324.206 12.296H324.656C328.441 12.296 331.423 13.2458 333.604 15.1453C335.81 17.0193 336.912 19.7659 336.912 23.3853C336.912 27.0304 335.822 29.79 333.641 31.6638C331.461 33.5378 328.466 34.4747 324.656 34.4747H324.206V38.0171H320.897V34.4747H320.445C316.634 34.4747 313.64 33.5378 311.459 31.6638C309.279 29.79 308.188 27.0304 308.188 23.3853C308.188 19.7659 309.279 17.0193 311.459 15.1453C313.666 13.2458 316.66 12.296 320.445 12.296H320.897V9.13867H324.206V12.296ZM320.445 31.3943H320.897V15.3764H320.445C317.638 15.3764 315.445 16.0566 313.865 17.4171C312.31 18.7519 311.534 20.7414 311.534 23.3853C311.534 26.0549 312.31 28.0572 313.865 29.3921C315.445 30.7268 317.638 31.3943 320.445 31.3943ZM324.206 31.3943H324.656C327.439 31.3943 329.62 30.7268 331.198 29.3921C332.776 28.0572 333.566 26.0549 333.566 23.3853C333.566 20.7414 332.776 18.7519 331.198 17.4171C329.643 16.0566 327.463 15.3764 324.656 15.3764H324.206V31.3943Z" fill="#282828"/>
<path d="M108.429 62.3348C106.795 62.3348 105.422 61.7767 104.31 60.6606C103.22 59.5444 102.676 58.1218 102.676 56.393C102.676 54.6749 103.22 53.2579 104.31 52.1418C105.411 51.0146 106.784 50.4512 108.429 50.4512C109.647 50.4512 110.695 50.7356 111.571 51.3047V52.5521C110.588 51.9064 109.546 51.5837 108.445 51.5837C107.163 51.5837 106.079 52.0433 105.192 52.9625C104.316 53.8596 103.878 55.0032 103.878 56.393C103.878 57.7935 104.316 58.9425 105.192 59.8399C106.079 60.748 107.174 61.2022 108.477 61.2022C109.781 61.2022 110.892 60.8191 111.811 60.0532V61.3171C110.892 61.9955 109.765 62.3348 108.429 62.3348ZM118.245 62.1378H117.059V51.7479H113.196V50.6481H122.156V51.7479H118.245V62.1378ZM125.487 62.1378H124.301V50.6481H129.013C130.125 50.6481 131 50.938 131.641 51.5181C132.283 52.0979 132.603 52.8694 132.603 53.8324C132.603 54.8172 132.283 55.6051 131.641 56.196C131 56.7759 130.125 57.0659 129.013 57.0659H125.487V62.1378ZM125.487 51.7479V55.9662H128.933C129.724 55.9662 130.337 55.7857 130.776 55.4245C131.214 55.0524 131.433 54.5326 131.433 53.8652C131.433 53.1866 131.214 52.667 130.776 52.3059C130.349 51.9338 129.734 51.7479 128.933 51.7479H125.487ZM136.097 52.1582C137.176 51.02 138.523 50.4512 140.136 50.4512C141.739 50.4512 143.08 51.02 144.159 52.1582C145.238 53.2961 145.777 54.7077 145.777 56.393C145.777 58.089 145.238 59.506 144.159 60.6441C143.091 61.7711 141.75 62.3348 140.136 62.3348C138.512 62.3348 137.166 61.7711 136.097 60.6441C135.029 59.517 134.494 58.1 134.494 56.393C134.494 54.6967 135.029 53.2851 136.097 52.1582ZM136.979 59.8234C137.823 60.7426 138.875 61.2022 140.136 61.2022C141.397 61.2022 142.449 60.7426 143.293 59.8234C144.148 58.8933 144.575 57.7497 144.575 56.393C144.575 55.036 144.148 53.8924 143.293 52.9625C142.449 52.0433 141.397 51.5837 140.136 51.5837C138.875 51.5837 137.823 52.0433 136.979 52.9625C136.125 53.8924 135.696 55.036 135.696 56.393C135.696 57.7497 136.125 58.8933 136.979 59.8234ZM149.492 62.1378H148.498V50.6481H149.668V60.1025L156.64 50.6481H157.682V62.1378H156.512V52.6506L149.492 62.1378ZM164.87 62.1378H163.684V51.7479H159.821V50.6481H168.78V51.7479H164.87V62.1378ZM178.859 62.1378H170.926V50.6481H178.619V51.7479H172.112V55.4245H177.449V56.5243H172.112V61.0381H178.859V62.1378ZM179.799 62.1378V61.0217C179.907 61.0435 180.055 61.0545 180.248 61.0545C180.74 61.0545 181.129 60.8793 181.418 60.5292C181.718 60.1789 181.958 59.6701 182.139 59.0028C182.267 58.554 182.353 58.0615 182.395 57.5255C182.459 56.9126 182.508 56.3327 182.54 55.7857C182.561 55.3807 182.583 54.7131 182.604 53.7832L182.668 50.6481H189.688V62.1378H188.502V51.7479H183.822L183.742 54.3741C183.678 56.5297 183.517 58.1492 183.261 59.2325C183.037 60.2174 182.684 60.945 182.203 61.4156C181.734 61.8752 181.081 62.1214 180.248 62.1542C180.003 62.1542 179.853 62.1486 179.799 62.1378ZM197.374 62.1378H192.838V50.6481H194.024V54.9321H197.374C198.646 54.9321 199.628 55.2658 200.323 55.9334C201.038 56.6007 201.397 57.4706 201.397 58.5432C201.397 59.6373 201.038 60.5128 200.323 61.1694C199.607 61.8149 198.624 62.1378 197.374 62.1378ZM194.024 56.0319V61.0381H197.294C198.213 61.0381 198.928 60.8247 199.441 60.3979C199.954 59.9601 200.211 59.3418 200.211 58.5432C200.211 57.7443 199.954 57.126 199.441 56.6884C198.939 56.2506 198.223 56.0319 197.294 56.0319H194.024ZM204.933 62.1378H203.747V50.6481H204.933V55.4245H211.6V50.6481H212.786V62.1378H211.6V56.5243H204.933V62.1378ZM216.068 62.1378H214.834L219.834 50.5825H220.94L225.957 62.1378H224.706L223.312 58.9699H217.43L216.068 62.1378ZM220.379 52.109L217.831 57.903H222.927L220.379 52.109ZM228.284 62.1378H226.906L230.528 56.8525C229.694 56.7102 229.043 56.3655 228.572 55.8185C228.113 55.2712 227.883 54.5874 227.883 53.7668C227.883 52.8148 228.198 52.0597 228.829 51.5017C229.46 50.9326 230.319 50.6481 231.409 50.6481H236.443V62.1378H235.256V56.9674H231.826L228.284 62.1378ZM231.489 55.8677H235.256V51.7479H231.489C230.72 51.7479 230.121 51.9284 229.694 52.2895C229.267 52.6506 229.053 53.1594 229.053 53.816C229.053 54.4725 229.267 54.9814 229.694 55.3425C230.121 55.6926 230.72 55.8677 231.489 55.8677ZM243.831 50.6481H245.015V55.6379L250.209 50.6481H251.78L246.265 55.9005L252.629 62.1378H250.962L245.015 56.2945V62.1378H243.831V50.6481ZM254.704 52.1582C255.783 51.02 257.129 50.4512 258.742 50.4512C260.346 50.4512 261.685 51.02 262.766 52.1582C263.844 53.2961 264.384 54.7077 264.384 56.393C264.384 58.089 263.844 59.506 262.766 60.6441C261.696 61.7711 260.355 62.3348 258.742 62.3348C257.117 62.3348 255.771 61.7711 254.704 60.6441C253.635 59.517 253.1 58.1 253.1 56.393C253.1 54.6967 253.635 53.2851 254.704 52.1582ZM255.586 59.8234C256.428 60.7426 257.483 61.2022 258.742 61.2022C260.003 61.2022 261.056 60.7426 261.9 59.8234C262.754 58.8933 263.181 57.7497 263.181 56.393C263.181 55.036 262.754 53.8924 261.9 52.9625C261.056 52.0433 260.003 51.5837 258.742 51.5837C257.483 51.5837 256.428 52.0433 255.586 52.9625C254.73 53.8924 254.303 55.036 254.303 56.393C254.303 57.7497 254.73 58.8933 255.586 59.8234ZM268.274 62.1378H267.104V50.6481H268.274L272.328 56.2124L276.382 50.6481H277.538V62.1378H276.368V52.4865L272.696 57.5091H271.976L268.274 52.4865V62.1378ZM281.874 62.1378H280.689V50.6481H289.487V62.1378H288.301V51.7479H281.874V62.1378ZM292.775 62.1378H291.541L296.54 50.5825H297.647L302.663 62.1378H301.413L300.02 58.9699H294.137L292.775 62.1378ZM297.087 52.109L294.538 57.903H299.636L297.087 52.109ZM305.901 62.1378H304.715V50.6481H305.901V55.4245H312.567V50.6481H313.754V62.1378H312.567V56.5243H305.901V62.1378ZM317.9 62.1378H316.905V50.6481H318.075V60.1025L325.047 50.6481H326.09V62.1378H324.92V52.6506L317.9 62.1378ZM329.72 62.1378H328.341L331.964 56.8525C331.129 56.7102 330.48 56.3655 330.008 55.8185C329.549 55.2712 329.319 54.5874 329.319 53.7668C329.319 52.8148 329.635 52.0597 330.264 51.5017C330.895 50.9326 331.755 50.6481 332.845 50.6481H337.877V62.1378H336.691V56.9674H333.261L329.72 62.1378ZM332.925 55.8677H336.691V51.7479H332.925C332.156 51.7479 331.558 51.9284 331.129 52.2895C330.702 52.6506 330.489 53.1594 330.489 53.816C330.489 54.4725 330.702 54.9814 331.129 55.3425C331.558 55.6926 332.156 55.8677 332.925 55.8677Z" fill="#282828"/>
</g>
</g>
<defs>
<clipPath id="clip0_325_82">
<rect width="340" height="68" fill="white"/>
</clipPath>
</defs>
</svg>
