<svg width="156" height="43" viewBox="0 0 156 43" fill="none" xmlns="http://www.w3.org/2000/svg">
<g filter="url(#filter0_d_308_606)">
<path d="M17.8702 1.33929V3.28718H12.3847V18.7241H10.2749V3.28718H4.74243V1.33929H17.8702ZM27.0377 1.02277C29.4918 1.02277 31.4062 1.87497 32.7817 3.57935C34.1565 5.28378 34.8445 7.43453 34.8445 10.0317C34.8445 12.6289 34.1565 14.7796 32.7817 16.4841C31.4062 18.1885 29.4918 19.0406 27.0377 19.0406C24.5685 19.0406 22.6463 18.1965 21.2708 16.5084C19.911 14.804 19.2315 12.6451 19.2315 10.0317C19.2315 7.41829 19.911 5.26755 21.2708 3.57935C22.6463 1.87497 24.5685 1.02277 27.0377 1.02277ZM22.7947 15.0231C23.7477 16.3705 25.1624 17.0441 27.0377 17.0441C28.9135 17.0441 30.3276 16.3705 31.2812 15.0231C32.2342 13.6759 32.7109 12.0121 32.7109 10.0317C32.7109 8.05135 32.2342 6.38755 31.2812 5.04024C30.3276 3.69301 28.9135 3.01932 27.0377 3.01932C25.1624 3.01932 23.7477 3.69301 22.7947 5.04024C21.8412 6.38755 21.365 8.05135 21.365 10.0317C21.365 12.0121 21.8412 13.6759 22.7947 15.0231ZM38.2757 1.33929H51.6846V18.7241H49.5753V3.33588H40.3858V18.7241H38.2757V1.33929ZM68.5382 16.7275H70.9531V22.9851H68.8666V18.7241H56.1837V22.9851H54.0972V16.7275H55.8318C57.2388 13.6434 57.9419 9.68268 57.9419 4.84548V1.33929H68.5382V16.7275ZM66.4518 16.7275V3.33588H59.9583V5.21068C59.9583 9.95059 59.333 13.7895 58.0825 16.7275H66.4518ZM80.6772 1.02277C83.1305 1.02277 85.045 1.87497 86.4205 3.57935C87.7961 5.28378 88.4833 7.43453 88.4833 10.0317C88.4833 12.6289 87.7961 14.7796 86.4205 16.4841C85.045 18.1885 83.1305 19.0406 80.6772 19.0406C78.2075 19.0406 76.2851 18.1965 74.9103 16.5084C73.5506 14.804 72.8703 12.6451 72.8703 10.0317C72.8703 7.41829 73.5506 5.26755 74.9103 3.57935C76.2851 1.87497 78.2075 1.02277 80.6772 1.02277ZM76.4337 15.0231C77.3872 16.3705 78.8013 17.0441 80.6772 17.0441C82.5524 17.0441 83.9671 16.3705 84.9201 15.0231C85.8737 13.6759 86.3506 12.0121 86.3506 10.0317C86.3506 8.05135 85.8737 6.38755 84.9201 5.04024C83.9671 3.69301 82.5524 3.01932 80.6772 3.01932C78.8013 3.01932 77.3872 3.69301 76.4337 5.04024C75.4807 6.38755 75.0039 8.05135 75.0039 10.0317C75.0039 12.0121 75.4807 13.6759 76.4337 15.0231ZM91.9148 18.7241V1.33929H95.4311L99.6506 9.49601H100.167L104.316 1.33929H107.856V18.7241H105.793V3.82282H105.277L100.987 12.077H98.7836L94.4939 3.82282H93.9778V18.7241H91.9148ZM114.239 18.7241H111.802V15.8997H114.239V18.7241ZM118.174 1.33929H125.253C127.066 1.33929 128.465 1.79382 129.449 2.70282C130.434 3.61183 130.926 4.88603 130.926 6.52552C130.926 8.18124 130.434 9.47169 129.449 10.3969C128.465 11.306 127.066 11.7604 125.253 11.7604H120.283V18.7241H118.174V1.33929ZM120.283 9.81257H124.902C127.496 9.81257 128.794 8.72497 128.794 6.54984C128.794 4.37478 127.496 3.28718 124.902 3.28718H120.283V9.81257ZM143.153 2.77585H143.434C145.793 2.77585 147.653 3.37644 149.013 4.57762C150.389 5.76264 151.076 7.49947 151.076 9.78818C151.076 12.0932 150.396 13.8382 149.036 15.0231C147.677 16.2081 145.81 16.8006 143.434 16.8006H143.153V19.0406H141.09V16.8006H140.808C138.432 16.8006 136.565 16.2081 135.205 15.0231C133.845 13.8382 133.166 12.0932 133.166 9.78818C133.166 7.49947 133.845 5.76264 135.205 4.57762C136.581 3.37644 138.448 2.77585 140.808 2.77585H141.09V0.779297H143.153V2.77585ZM140.808 14.8527H141.09V4.72375H140.808C139.058 4.72375 137.691 5.15389 136.705 6.01419C135.736 6.85825 135.252 8.1163 135.252 9.78818C135.252 11.4763 135.736 12.7425 136.705 13.5866C137.691 14.4306 139.058 14.8527 140.808 14.8527ZM143.153 14.8527H143.434C145.169 14.8527 146.529 14.4306 147.513 13.5866C148.497 12.7425 148.99 11.4763 148.99 9.78818C148.99 8.1163 148.497 6.85825 147.513 6.01419C146.544 5.15389 145.184 4.72375 143.434 4.72375H143.153V14.8527Z" fill="white"/>
</g>
<g filter="url(#filter1_d_308_606)">
<path d="M8.60768 34.4175C7.58847 34.4175 6.73229 34.0646 6.03941 33.3588C5.35984 32.653 5.0202 31.7534 5.0202 30.6601C5.0202 29.5737 5.35984 28.6777 6.03941 27.9719C6.72556 27.2591 7.58175 26.9028 8.60768 26.9028C9.36723 26.9028 10.0202 27.0827 10.5664 27.4426V28.2314C9.95352 27.823 9.30392 27.619 8.61777 27.619C7.81831 27.619 7.1421 27.9096 6.58915 28.4909C6.04278 29.0582 5.76966 29.7813 5.76966 30.6601C5.76966 31.5458 6.04278 32.2723 6.58915 32.8398C7.1421 33.4141 7.82489 33.7013 8.63766 33.7013C9.45057 33.7013 10.1433 33.459 10.7163 32.9747V33.7739C10.1433 34.2029 9.44048 34.4175 8.60768 34.4175ZM14.7282 34.2929H13.9887V27.7228H11.5801V27.0274H17.1666V27.7228H14.7282V34.2929ZM19.2438 34.2929H18.5043V27.0274H21.4423C22.1353 27.0274 22.6814 27.2107 23.0811 27.5775C23.4809 27.9442 23.6807 28.432 23.6807 29.041C23.6807 29.6637 23.4809 30.1619 23.0811 30.5356C22.6814 30.9023 22.1353 31.0857 21.4423 31.0857H19.2438V34.2929ZM19.2438 27.7228V30.3903H21.3923C21.8856 30.3903 22.2681 30.2761 22.5415 30.0478C22.8149 29.8124 22.9513 29.4837 22.9513 29.0617C22.9513 28.6326 22.8149 28.304 22.5415 28.0757C22.2753 27.8404 21.892 27.7228 21.3923 27.7228H19.2438ZM25.8594 27.9823C26.5324 27.2625 27.3719 26.9028 28.3776 26.9028C29.377 26.9028 30.2136 27.2625 30.886 27.9823C31.5591 28.7019 31.8952 29.5945 31.8952 30.6601C31.8952 31.7326 31.5591 32.6287 30.886 33.3484C30.22 34.061 29.3841 34.4175 28.3776 34.4175C27.3654 34.4175 26.5261 34.061 25.8594 33.3484C25.1934 32.6356 24.86 31.7396 24.86 30.6601C24.86 29.5875 25.1934 28.6949 25.8594 27.9823ZM26.409 32.8294C26.9357 33.4107 27.5918 33.7013 28.3776 33.7013C29.1642 33.7013 29.8203 33.4107 30.3463 32.8294C30.8795 32.2412 31.1458 31.5181 31.1458 30.6601C31.1458 29.8021 30.8795 29.0789 30.3463 28.4909C29.8203 27.9096 29.1642 27.619 28.3776 27.619C27.5918 27.619 26.9357 27.9096 26.409 28.4909C25.8765 29.0789 25.6095 29.8021 25.6095 30.6601C25.6095 31.5181 25.8765 32.2412 26.409 32.8294ZM34.2116 34.2929H33.592V27.0274H34.3215V33.0059L38.6685 27.0274H39.3182V34.2929H38.5886V28.2937L34.2116 34.2929ZM43.8001 34.2929H43.0606V27.7228H40.6521V27.0274H46.2384V27.7228H43.8001V34.2929ZM52.5228 34.2929H47.5761V27.0274H52.3728V27.7228H48.3156V30.0478H51.6434V30.7432H48.3156V33.5975H52.5228V34.2929ZM53.1088 34.2929V33.5871C53.1759 33.6009 53.2686 33.6079 53.3887 33.6079C53.6955 33.6079 53.9383 33.4971 54.1181 33.2757C54.3051 33.0542 54.4551 32.7324 54.5678 32.3105C54.6478 32.0267 54.7013 31.7153 54.7278 31.3763C54.7677 30.9887 54.7977 30.622 54.8177 30.2761C54.8311 30.02 54.8447 29.5979 54.8576 29.0098L54.8977 27.0274H59.2747V34.2929H58.5352V27.7228H55.6171L55.5671 29.3835C55.5272 30.7466 55.4272 31.7707 55.2673 32.4558C55.1275 33.0785 54.9076 33.5386 54.6077 33.8362C54.3152 34.1268 53.9083 34.2825 53.3887 34.3033C53.2359 34.3033 53.1423 34.2997 53.1088 34.2929ZM64.0672 34.2929H61.2391V27.0274H61.9785V29.7364H64.0672C64.8602 29.7364 65.4727 29.9474 65.9059 30.3695C66.352 30.7915 66.5755 31.3416 66.5755 32.0198C66.5755 32.7117 66.352 33.2653 65.9059 33.6805C65.4598 34.0887 64.8466 34.2929 64.0672 34.2929ZM61.9785 30.4318V33.5975H64.0172C64.5903 33.5975 65.0365 33.4626 65.3563 33.1927C65.676 32.9159 65.836 32.5249 65.836 32.0198C65.836 31.5147 65.676 31.1237 65.3563 30.847C65.043 30.5701 64.5967 30.4318 64.0172 30.4318H61.9785ZM68.7805 34.2929H68.0409V27.0274H68.7805V30.0478H72.9376V27.0274H73.6771V34.2929H72.9376V30.7432H68.7805V34.2929ZM75.7235 34.2929H74.954L78.072 26.9859H78.7616L81.8894 34.2929H81.1099L80.2406 32.2897H76.573L75.7235 34.2929ZM78.4117 27.9511L76.8228 31.615H80.0007L78.4117 27.9511ZM83.3406 34.2929H82.4812L84.7397 30.9508C84.22 30.8608 83.8139 30.6428 83.5204 30.2969C83.2342 29.9508 83.0907 29.5184 83.0907 28.9995C83.0907 28.3975 83.2871 27.92 83.6804 27.5671C84.0737 27.2072 84.6097 27.0274 85.2893 27.0274H88.4277V34.2929H87.6879V31.0234H85.5491L83.3406 34.2929ZM85.3393 30.328H87.6879V27.7228H85.3393C84.8596 27.7228 84.4863 27.837 84.22 28.0653C83.9538 28.2937 83.8203 28.6154 83.8203 29.0306C83.8203 29.4458 83.9538 29.7675 84.22 29.9959C84.4863 30.2172 84.8596 30.328 85.3393 30.328ZM93.0347 27.0274H93.7731V30.1827L97.0115 27.0274H97.9911L94.5523 30.3488L98.5204 34.2929H97.4809L93.7731 30.5979V34.2929H93.0347V27.0274ZM99.8143 27.9823C100.487 27.2625 101.326 26.9028 102.332 26.9028C103.332 26.9028 104.167 27.2625 104.841 27.9823C105.513 28.7019 105.85 29.5945 105.85 30.6601C105.85 31.7326 105.513 32.6287 104.841 33.3484C104.174 34.061 103.338 34.4175 102.332 34.4175C101.319 34.4175 100.48 34.061 99.8143 33.3484C99.1476 32.6356 98.8143 31.7396 98.8143 30.6601C98.8143 29.5875 99.1476 28.6949 99.8143 27.9823ZM100.364 32.8294C100.889 33.4107 101.547 33.7013 102.332 33.7013C103.119 33.7013 103.775 33.4107 104.301 32.8294C104.834 32.2412 105.1 31.5181 105.1 30.6601C105.1 29.8021 104.834 29.0789 104.301 28.4909C103.775 27.9096 103.119 27.619 102.332 27.619C101.547 27.619 100.889 27.9096 100.364 28.4909C99.8304 29.0789 99.5643 29.8021 99.5643 30.6601C99.5643 31.5181 99.8304 32.2412 100.364 32.8294ZM108.275 34.2929H107.546V27.0274H108.275L110.803 30.546L113.331 27.0274H114.052V34.2929H113.322V28.1899L111.033 31.3659H110.584L108.275 28.1899V34.2929ZM116.755 34.2929H116.017V27.0274H121.503V34.2929H120.763V27.7228H116.755V34.2929ZM123.552 34.2929H122.783L125.901 26.9859H126.591L129.718 34.2929H128.939L128.07 32.2897H124.402L123.552 34.2929ZM126.241 27.9511L124.652 31.615H127.83L126.241 27.9511ZM131.737 34.2929H130.997V27.0274H131.737V30.0478H135.894V27.0274H136.634V34.2929H135.894V30.7432H131.737V34.2929ZM139.219 34.2929H138.599V27.0274H139.328V33.0059L143.675 27.0274H144.326V34.2929H143.596V28.2937L139.219 34.2929ZM146.589 34.2929H145.729L147.988 30.9508C147.468 30.8608 147.063 30.6428 146.769 30.2969C146.482 29.9508 146.339 29.5184 146.339 28.9995C146.339 28.3975 146.536 27.92 146.928 27.5671C147.321 27.2072 147.858 27.0274 148.538 27.0274H151.675V34.2929H150.936V31.0234H148.797L146.589 34.2929ZM148.587 30.328H150.936V27.7228H148.587C148.108 27.7228 147.735 27.837 147.468 28.0653C147.201 28.2937 147.068 28.6154 147.068 29.0306C147.068 29.4458 147.201 29.7675 147.468 29.9959C147.735 30.2172 148.108 30.328 148.587 30.328Z" fill="white"/>
</g>
<defs>
<filter id="filter0_d_308_606" x="0.742432" y="0.779297" width="154.334" height="30.2056" filterUnits="userSpaceOnUse" color-interpolation-filters="sRGB">
<feFlood flood-opacity="0" result="BackgroundImageFix"/>
<feColorMatrix in="SourceAlpha" type="matrix" values="0 0 0 0 0 0 0 0 0 0 0 0 0 0 0 0 0 0 127 0" result="hardAlpha"/>
<feOffset dy="4"/>
<feGaussianBlur stdDeviation="2"/>
<feComposite in2="hardAlpha" operator="out"/>
<feColorMatrix type="matrix" values="0 0 0 0 0 0 0 0 0 0 0 0 0 0 0 0 0 0 0.25 0"/>
<feBlend mode="normal" in2="BackgroundImageFix" result="effect1_dropShadow_308_606"/>
<feBlend mode="normal" in="SourceGraphic" in2="effect1_dropShadow_308_606" result="shape"/>
</filter>
<filter id="filter1_d_308_606" x="1.0202" y="26.9028" width="154.655" height="15.5146" filterUnits="userSpaceOnUse" color-interpolation-filters="sRGB">
<feFlood flood-opacity="0" result="BackgroundImageFix"/>
<feColorMatrix in="SourceAlpha" type="matrix" values="0 0 0 0 0 0 0 0 0 0 0 0 0 0 0 0 0 0 127 0" result="hardAlpha"/>
<feOffset dy="4"/>
<feGaussianBlur stdDeviation="2"/>
<feComposite in2="hardAlpha" operator="out"/>
<feColorMatrix type="matrix" values="0 0 0 0 0 0 0 0 0 0 0 0 0 0 0 0 0 0 0.25 0"/>
<feBlend mode="normal" in2="BackgroundImageFix" result="effect1_dropShadow_308_606"/>
<feBlend mode="normal" in="SourceGraphic" in2="effect1_dropShadow_308_606" result="shape"/>
</filter>
</defs>
</svg>
