<svg width="53" height="43" viewBox="0 0 53 43" fill="none" xmlns="http://www.w3.org/2000/svg">
<path fill-rule="evenodd" clip-rule="evenodd" d="M1.12889 16.1072L14.2603 0.00666679L37.9689 0L52.6133 19.1064L32.069 28.3812L14.2652 4.90612L0 19.126L14.2632 3.22754L32.2496 27.8321L52.6133 19.1064L37.8059 0.34964L14.9286 0.97498L32.1335 24.6042L14.2633 0.989578L1.12889 16.1072Z" fill="white"/>
<path fill-rule="evenodd" clip-rule="evenodd" d="M14.1998 13.4111L17.9331 14.0838L17.9385 22.2187L14.3221 21.1638L16.8701 21.7753V14.3578L14.3886 13.6751L14.221 21.1449L14.1998 13.4111Z" fill="white"/>
<path fill-rule="evenodd" clip-rule="evenodd" d="M17.9234 31.0547L17.939 22.9658L14.2049 21.8179L14.1888 29.3005L14.3585 22.0788L16.8777 23.0121L16.8846 30.4655L14.2746 29.3286L17.9234 31.0547Z" fill="white"/>
<path fill-rule="evenodd" clip-rule="evenodd" d="M10.7392 12.8203L13.5144 13.3038L13.5388 20.9513L12.5655 20.6478L12.5615 13.5142L10.8872 13.0577L10.7535 20.096L10.7392 12.8203Z" fill="white"/>
<path fill-rule="evenodd" clip-rule="evenodd" d="M13.533 28.9858L13.5389 21.6142L10.7222 20.7534L10.7135 27.6352L10.8195 20.9288L12.5818 21.5589L12.5724 28.5683L13.533 28.9858Z" fill="white"/>
<path fill-rule="evenodd" clip-rule="evenodd" d="M26.6025 37.8472L26.113 25.8862L25.6558 37.8465L2.51898 26.7719L26.103 39.6049L49.2602 26.7692L26.6025 37.8472Z" fill="white"/>
<path fill-rule="evenodd" clip-rule="evenodd" d="M26.1374 41.3547L49.1527 28.8491L26.1247 43L2.38336 28.8491L26.1374 41.3547Z" fill="white"/>
</svg>
