<?xml version="1.0" encoding="UTF-8"?>
<!DOCTYPE svg PUBLIC "-//W3C//DTD SVG 1.1//EN" "http://www.w3.org/Graphics/SVG/1.1/DTD/svg11.dtd">
<svg xmlns="http://www.w3.org/2000/svg" version="1.1" width="512px" height="512px" style="shape-rendering:geometricPrecision; text-rendering:geometricPrecision; image-rendering:optimizeQuality; fill-rule:evenodd; clip-rule:evenodd" xmlns:xlink="http://www.w3.org/1999/xlink">
<g><path style="opacity:0.999" fill="#e1e4e6" d="M 119.5,-0.5 C 196.833,-0.5 274.167,-0.5 351.5,-0.5C 351.333,33.835 351.5,68.1683 352,102.5C 357.231,118.243 368.065,126.576 384.5,127.5C 415.833,159.5 447.5,191.167 479.5,222.5C 479.667,310.834 479.5,399.167 479,487.5C 477.608,493.214 474.941,498.214 471,502.5C 466.4,506.626 461.234,509.626 455.5,511.5C 343.5,511.5 231.5,511.5 119.5,511.5C 110.081,508.252 102.914,502.252 98,493.5C 97.3333,491.5 96.6667,489.5 96,487.5C 95.5001,474.171 95.3334,460.837 95.5,447.5C 198.167,447.667 300.834,447.5 403.5,447C 408.185,445.65 411.685,442.817 414,438.5C 415.377,431.924 415.877,425.257 415.5,418.5C 415.667,362.832 415.5,307.166 415,251.5C 413.65,246.815 410.817,243.315 406.5,241C 302.89,239.507 199.223,239.007 95.5,239.5C 95.3333,167.499 95.5,95.4992 96,23.5C 97.3923,17.7863 100.059,12.7863 104,8.5C 108.6,4.37379 113.766,1.37379 119.5,-0.5 Z"/></g>
<g><path style="opacity:1" fill="#b0b7bd" d="M 351.5,-0.5 C 351.833,-0.5 352.167,-0.5 352.5,-0.5C 394.5,41.8333 436.5,84.1667 478.5,126.5C 447.338,127.498 416.004,127.832 384.5,127.5C 368.065,126.576 357.231,118.243 352,102.5C 351.5,68.1683 351.333,33.835 351.5,-0.5 Z"/></g>
<g><path style="opacity:1" fill="#c9d0d7" d="M 478.5,126.5 C 479.498,158.329 479.832,190.329 479.5,222.5C 447.5,191.167 415.833,159.5 384.5,127.5C 416.004,127.832 447.338,127.498 478.5,126.5 Z"/></g>
<g><path style="opacity:1" fill="#a066aa" d="M 95.5,239.5 C 199.223,239.007 302.89,239.507 406.5,241C 410.817,243.315 413.65,246.815 415,251.5C 415.5,307.166 415.667,362.832 415.5,418.5C 413.68,425.151 409.347,429.318 402.5,431C 300.167,431.5 197.834,431.667 95.5,431.5C 77.4969,431.667 59.4969,431.5 41.5,431C 37,429.167 33.8333,426 32,421.5C 31.3333,364.167 31.3333,306.833 32,249.5C 33.8333,245 37,241.833 41.5,240C 59.4969,239.5 77.4969,239.333 95.5,239.5 Z"/></g>
<g><path style="opacity:1" fill="#fcfbfd" d="M 314.5,292.5 C 329.15,291.613 341.65,296.28 352,306.5C 353.265,313.402 350.432,317.402 343.5,318.5C 339.37,316.265 335.37,313.765 331.5,311C 317.456,305.791 305.622,308.958 296,320.5C 288.433,333.676 288.766,346.676 297,359.5C 305.806,368.097 316.306,370.93 328.5,368C 331.864,366.901 335.03,365.401 338,363.5C 338.499,358.177 338.666,352.844 338.5,347.5C 330.826,347.666 323.159,347.5 315.5,347C 309.713,341.173 310.38,336.173 317.5,332C 327.167,331.333 336.833,331.333 346.5,332C 350.112,332.889 352.612,335.055 354,338.5C 354.667,348.167 354.667,357.833 354,367.5C 353.529,369.246 352.862,370.913 352,372.5C 336.155,385.113 318.655,387.946 299.5,381C 288.667,376.833 281.167,369.333 277,358.5C 267.958,330.256 276.458,309.423 302.5,296C 306.543,294.509 310.543,293.342 314.5,292.5 Z"/></g>
<g><path style="opacity:1" fill="#fdfcfd" d="M 98.5,293.5 C 110.171,293.333 121.838,293.5 133.5,294C 153.738,297.236 163.238,309.07 162,329.5C 160.152,344.398 151.986,353.564 137.5,357C 128.173,357.5 118.839,357.666 109.5,357.5C 109.929,364.947 109.429,372.281 108,379.5C 102.64,385.021 97.6398,384.688 93,378.5C 92.3333,352.167 92.3333,325.833 93,299.5C 94.3597,296.977 96.193,294.977 98.5,293.5 Z"/></g>
<g><path style="opacity:1" fill="#fefdfe" d="M 196.5,326.5 C 196.44,325.957 196.107,325.624 195.5,325.5C 194.5,342.821 194.167,360.154 194.5,377.5C 192.808,382.987 189.141,384.82 183.5,383C 181.667,381.833 180.167,380.333 179,378.5C 178.018,351.413 178.351,324.413 180,297.5C 183.453,294.231 187.286,293.731 191.5,296C 207.025,314.224 222.192,332.724 237,351.5C 237.333,334.167 237.667,316.833 238,299.5C 243.285,292.844 248.618,292.844 254,299.5C 254.667,325.833 254.667,352.167 254,378.5C 250.135,384.117 245.302,384.951 239.5,381C 224.797,363.076 210.463,344.909 196.5,326.5 Z"/></g>
<g><path style="opacity:1" fill="#dbc5df" d="M 133.5,310.5 C 125.5,310.5 117.5,310.5 109.5,310.5C 109.5,320.833 109.5,331.167 109.5,341.5C 108.506,331.013 108.172,320.346 108.5,309.5C 117.017,309.174 125.35,309.507 133.5,310.5 Z"/></g>
<g><path style="opacity:1" fill="#a066aa" d="M 133.5,310.5 C 145.539,315.27 148.706,323.603 143,335.5C 140.9,338.467 138.066,340.3 134.5,341C 126.173,341.5 117.84,341.666 109.5,341.5C 109.5,331.167 109.5,320.833 109.5,310.5C 117.5,310.5 125.5,310.5 133.5,310.5 Z"/></g>
<g><path style="opacity:1" fill="#e3d2e5" d="M 196.5,326.5 C 195.833,343.5 195.167,360.5 194.5,377.5C 194.167,360.154 194.5,342.821 195.5,325.5C 196.107,325.624 196.44,325.957 196.5,326.5 Z"/></g>
<g><path style="opacity:1" fill="#cad0d8" d="M 415.5,418.5 C 415.877,425.257 415.377,431.924 414,438.5C 411.685,442.817 408.185,445.65 403.5,447C 300.834,447.5 198.167,447.667 95.5,447.5C 95.5,442.167 95.5,436.833 95.5,431.5C 197.834,431.667 300.167,431.5 402.5,431C 409.347,429.318 413.68,425.151 415.5,418.5 Z"/></g>
</svg>
